<svg class="svg-icon" style="width: 1em; height: 1em;vertical-align: middle;fill: currentColor;overflow: hidden;" viewBox="0 0 1024 1024" version="1.1" xmlns="http://www.w3.org/2000/svg"><path d="M926.8 174.8l-411.1-76c-4.8-0.9-9.8-0.9-14.7 0l-404.5 76C77.7 178.4 64 194.9 64 214.1v461.3c0 14.9 8.3 28.6 21.5 35.5l406.3 212c5.8 3 12.1 4.5 18.5 4.5a40 40 0 0 0 18.4-4.5l409.3-212c13.3-6.9 21.6-20.6 21.6-35.5V214.1c0-19.3-13.8-35.8-32.8-39.3zM144 272.4l11.2-27.2 313.3-58.9v162.9l-36.8-15.1-30.4 74 67.1 27.6v134.4L144 628.6V272.4z m324.5 379v169L227.7 694.8l240.8-43.4z m80-0.2l247.1 43.3-247.1 128V651.2z m0-81.2V436l74.6-30-29.8-74.2-44.8 18V186.2l322.4 59.6 8.7 21.6V628l-331.1-58z"  /><path d="M286.57 361.03l30.376-74.008 76.506 31.401-30.376 74.008zM171.664 313.866l30.376-74.008 76.506 31.4-30.376 74.009zM746.827 270.089l76.737-30.823 29.816 74.232-76.737 30.823zM631.625 316.279l76.737-30.822 29.816 74.232-76.737 30.822z"  /></svg>